<?xml version="1.0" encoding="UTF-8" standalone="no"?>
<svg
   xmlns:dc="http://purl.org/dc/elements/1.1/"
   xmlns:cc="http://creativecommons.org/ns#"
   xmlns:rdf="http://www.w3.org/1999/02/22-rdf-syntax-ns#"
   xmlns:svg="http://www.w3.org/2000/svg"
   xmlns="http://www.w3.org/2000/svg"
   height="512"
   width="410"
   id="svg14"
   xml:space="preserve"
   enable-background="new 0 0 512 512"
   viewBox="0 0 410 512"
   y="0px"
   x="0px"
   version="1.1">
    <g transform="translate(-51.1)">
        <path d="m 181.1,202 c 5.5,5.5 14.4,5.5 20,0 l 91.6,-91.6 c 5.5,-5.5 5.5,-14.4 0,-20 -5.5,-5.5 -14.4,-5.5 -20,0 L 181.1,182 c -5.5,5.6 -5.5,14.5 0,20 z" />
        <path d="m 188.3,140.7 43,-43 c 5.5,-5.5 5.5,-14.4 0,-20 -5.5,-5.5 -14.4,-5.5 -20,0 l -43,43 c -5.5,5.5 -5.5,14.4 0,20 5.6,5.5 14.5,5.5 20,0 z" />
        <path d="M 458.9,371.1 C 458.6,335 429.5,305.7 393.5,305 410.5,274.2 420.4,237.4 420.4,197.8 420.4,89.8 346.7,2 256,2 165.4,2 91.7,89.8 91.7,197.8 c 0,39.5 9.9,76.4 26.9,107.2 -36,0.7 -65.2,30 -65.5,66.1 0,0.1 0,0.2 0,0.2 v 0.3 c 0,0.1 0,0.3 0,0.4 0.4,22.8 19,41.3 41.9,41.3 23.1,0 41.9,-18.8 41.9,-41.9 0,-7.8 -6.3,-14.1 -14.1,-14.1 -7.8,0 -14.1,6.3 -14.1,14.1 0,7.6 -6.1,13.7 -13.7,13.7 -7.5,0 -13.6,-6.1 -13.7,-13.6 0.1,-21.1 17.3,-38.3 38.5,-38.3 14.5,0 27.7,8 34.3,21 l 45.5,89 c -28.6,9.4 -51,25.8 -61.2,46.5 -4.6,9.4 2.2,20.3 12.7,20.3 h 210.1 c 10.4,0 17.3,-11 12.7,-20.3 -10.2,-20.7 -32.6,-37.2 -61.3,-46.5 l 45.5,-89 c 6.6,-12.9 19.7,-21 34.3,-21 21.2,0 38.4,17.2 38.5,38.3 -0.1,7.5 -6.2,13.6 -13.7,13.6 -7.5,0 -13.7,-6.1 -13.7,-13.7 0,-7.8 -6.3,-14.1 -14.1,-14.1 -7.8,0 -14.1,6.3 -14.1,14.1 0,23.1 18.8,41.9 41.9,41.9 22.9,0 41.6,-18.4 41.9,-41.3 0,-0.1 0,-0.3 0,-0.4 v -0.3 c -0.2,0 -0.2,-0.1 -0.2,-0.2 z M 256,30.2 c 75.1,0 136.1,75.2 136.1,167.6 0,92.4 -61.1,167.6 -136.1,167.6 -75.1,0 -136.2,-75.2 -136.2,-167.6 C 119.9,105.4 181,30.2 256,30.2 Z m -72.7,451.6 c 16.8,-11 42.1,-19.1 72.7,-19.1 30.6,0 55.9,8.1 72.7,19.1 z M 256,434.4 c -9.7,0 -19.1,0.7 -28.2,2.1 l -27.9,-54.6 c 17.5,7.6 36.4,11.8 56.1,11.8 19.7,0 38.5,-4.1 56,-11.7 l -27.9,54.6 c -9,-1.4 -18.4,-2.2 -28.1,-2.2 z" />
    </g>
</svg>
